<svg width="64" height="65" viewBox="0 0 64 65" fill="none" xmlns="http://www.w3.org/2000/svg">
<path d="M55.3977 16.2747C46.7397 15.3947 38.0297 14.9414 29.3457 14.9414C24.1977 14.9414 19.0497 15.2081 13.9017 15.7414L8.59766 16.2747" stroke="#E6E6E6" stroke-width="3.9" stroke-linecap="round" stroke-linejoin="round"/>
<path d="M22.8984 13.5802L23.4704 10.0868C23.8864 7.55349 24.1984 5.66016 28.5924 5.66016H35.4044C39.7984 5.66016 40.1364 7.66016 40.5264 10.1135L41.0984 13.5802" stroke="#E6E6E6" stroke-width="3.9" stroke-linecap="round" stroke-linejoin="round"/>
<path d="M49.8075 24.6992L48.1175 51.5525C47.8315 55.7392 47.5975 58.9926 40.3435 58.9926H23.6515C16.3975 58.9926 16.1635 55.7392 15.8775 51.5525L14.1875 24.6992" stroke="#E6E6E6" stroke-width="3.9" stroke-linecap="round" stroke-linejoin="round"/>
<path d="M27.6562 44.3262H36.3143" stroke="#E6E6E6" stroke-width="3.9" stroke-linecap="round" stroke-linejoin="round"/>
<path d="M25.4961 33.6602H38.4961" stroke="#E6E6E6" stroke-width="3.9" stroke-linecap="round" stroke-linejoin="round"/>
</svg>
